<svg xmlns="http://www.w3.org/2000/svg" width="1920" height="1920" viewBox="0 0 1920 1920" preserveAspectRatio="xMidYMid meet">
  <g transform="translate(0,1920) scale(0.1,-0.1)" fill="white">
    <path d="M2030 17855 c0 -12 1332 -1468 1442 -1577 396 -392 861 -685 1416 -894 267 -101 611 -189 837 -214 66 -7 1264 -19 3570 -34 l3470 -24 120 -42c525 -183 938 -428 1279 -760 166 -162 265 -280 388 -464 239 -360 395 -786 448 -1220 26 -213 7 -483 -56 -794 -140 -692 -459 -1249 -964 -1683 -360 -310 -870 -565 -1374 -689 -261 -63 -160 -60 -1752 -60 -800 0 -1454 -3 -1454 -8 0-4 82 -99 182 -212 2262 -2551 3943 -4484 4633 -5330 391 -479 793 -804 1324 -1070 367 -183 781 -321 1141 -380 121 -19 165 -20 1317 -20 l1192 0 -2154 2470 c-1185 1358 -2156 2474 -2157 2479 -2 5 80 65 182 133 467 312 819 597 1170 948 909 907 1440 1953 1585 3120 22 170 31 614 16 755 -7 61 -18 187 -26 280 -127 1486 -540 2603 -1303 3525 -123 148 -434 459 -582 582 -753 623-1623 1002 -2663 1161 l-142 21 -5542 3 c-3049 2 -5543 1 -5543 -2z"/>
    <path d="M242 13543 c117 -136 2136 -2490 4486 -5230 4545 -5300 4330 -5054 4580 -5246 499 -384 1128 -641 1777 -727 60 -8 379 -4 1249 15 643 14 1171 27 1173 29 3 2 -1645 1922 -3662 4266 -2017 2344 -3665 4263 -3663 4266 2 2 1271 -2 2819 -9 1547 -7 2815 -12 2817 -11 3 1 -192 205 -677 709 -58 61 -107 116-109 124 -11 50 -465 635 -654 841 -151 166 -353 345 -543 482 -404 291 -862 491 -1305 568 -109 19 -334 24 -4040 89 -2159 38 -4046 72 -4194 76 l-268 7 214 -249z m10781 -1823 c-5 -5 -123 116 -256 265 -44 50 -4 11 90 -85 94 -96 168 -177 166 -180z"/>
  </g>
</svg>
