<svg width="256" height="256" fill="none" xmlns="http://www.w3.org/2000/svg" viewBox="0 0 256 256"><rect width="256" height="256" rx="60" fill="#1a1a1d"/><path d="M122.81,101.57a5.38,5.38,0,0,1,4.85-2.67,6.3,6.3,0,0,1,5.47,2.67C145.91,119,167,153.69,182.58,179.29c10.15,16.69,17.95,29.51,19.56,31.14,6,6.12,14.24,2.31,19-4.64s6-11.64,6-16.76c0-3.49-68.27-129.42-75.14-139.9C145.44,39.05,143.27,36.5,132,36.5h-8.48c-11.28,0-12.91,2.55-19.52,12.63C97.1,59.61,28.82,185.54,28.82,189c0,5.13,1.32,9.93,6,16.77s13,10.76,19,4.63c1.6-1.63,9.39-14.44,19.55-31.14C89,153.69,110,119,122.82,101.57Z" fill="#edeef0"/></svg>