<svg width="256" height="256" fill="none" xmlns="http://www.w3.org/2000/svg" viewBox="0 0 256 256"><rect width="256" height="256" rx="60" fill="#1a1a1d"/><path d="M134,33.4a1.65,1.65,0,0,1,1.33.38q21.19,25.86,39.9,53.57a262.88,262.88,0,0,1,23.56,44.08q15.51,41.38-16.15,72-27.71,23.43-63.84,18.24-43.2-8.81-58.71-50a69.88,69.88,0,0,1-2.66-27.36A163.35,163.35,0,0,1,68.78,98a69.39,69.39,0,0,1,9.88-16.72q5,5.92,9.5,12.16c1.4,1.47,2.85,2.86,4.37,4.18A358.76,358.76,0,0,1,134,33.4Z" fill="#ff5b11" opacity="0.99" style="isolation:isolate"/><path d="M131.29,64.17a402.3,402.3,0,0,1,37.81,51.68,108.13,108.13,0,0,1,8.74,19q7.17,28.23-15.39,46.55-21.82,15.36-47.88,9.12-28.09-8.72-32.49-37.81A40.22,40.22,0,0,1,84,134.85a130.16,130.16,0,0,1,10.26-20.52l11.4-16.72Q118.59,81,131.29,64.17Z" fill="#ff9758"/></svg>