<?xml version="1.0" encoding="UTF-8"?>
<svg version="1.1" xmlns="http://www.w3.org/2000/svg" width="600" height="600">
<path d="M0 0 C198 0 396 0 600 0 C600 198 600 396 600 600 C402 600 204 600 0 600 C0 402 0 204 0 0 Z " fill="#242938" transform="translate(0,0)"/>
<path d="M0 0 C8.54282023 1.29550461 14.98853381 13.71392441 20.07421875 20.25390625 C23.03228917 24.05429494 26.04464984 27.8095325 29.0625 31.5625 C33.95867296 37.66714313 38.77129521 43.83124313 43.515625 50.0546875 C45.23636615 52.30976406 46.9620627 54.56101474 48.6875 56.8125 C57.5909766 68.44598516 66.36653805 80.16482516 75 92 C75.53157715 92.72719238 76.0631543 93.45438477 76.61083984 94.20361328 C85.94838091 106.99142314 94.99762592 119.9747797 104 133 C104.53431641 133.77182617 105.06863281 134.54365234 105.61914062 135.33886719 C108.34736881 139.28103177 111.06522627 143.2299653 113.76611328 147.19091797 C114.57793177 148.38117816 115.39136538 149.57033863 116.20654297 150.75830078 C148.77750169 198.30471868 181.70757961 254.42912471 195 311 C195.16580566 311.69770508 195.33161133 312.39541016 195.50244141 313.11425781 C205.84807185 357.63047214 198.29517182 402.78042575 175 442 C168.73877394 451.8370038 161.68057603 461.23093469 154 470 C153.50306641 470.56928223 153.00613281 471.13856445 152.49414062 471.72509766 C115.74695427 513.46630127 60.78179399 536.18773807 6 540 C-49.4403449 542.96174032 -106.7521444 524.63458494 -148.3125 487.3125 C-149.10914063 486.57773437 -149.90578125 485.84296875 -150.7265625 485.0859375 C-152.8389424 483.1477745 -154.99998072 481.28976729 -157.1875 479.4375 C-161.19634083 475.92279064 -164.6125876 472.11049466 -168 468 C-168.64195312 467.23453857 -168.64195312 467.23453857 -169.296875 466.45361328 C-204.20131927 424.72889814 -223.01132676 374.01816309 -218.49609375 319.453125 C-212.60952493 256.39745323 -196.89430412 188.27964119 -158 137 C-153.99950291 139.9503666 -150.99034059 143.25832507 -148 147.1875 C-147.53215088 147.79045898 -147.06430176 148.39341797 -146.58227539 149.01464844 C-143.93671773 152.43416549 -141.33407564 155.88442952 -138.74609375 159.34765625 C-129.44335091 172.86788778 -129.44335091 172.86788778 -117 183 C-116.78085938 182.21625 -116.56171875 181.4325 -116.3359375 180.625 C-114.55963787 175.80509925 -112.12172662 171.48029204 -109.625 167 C-108.52697552 165.0132243 -107.42932927 163.02623952 -106.33203125 161.0390625 C-105.77338379 160.03004883 -105.21473633 159.02103516 -104.63916016 157.98144531 C-103.11776544 155.2142019 -101.6213976 152.43551164 -100.13671875 149.6484375 C-92.60124724 135.5428417 -84.40303789 121.88703977 -76.01611328 108.27832031 C-74.20633829 105.33551835 -72.41063255 102.3848201 -70.62109375 99.4296875 C-58.85925409 80.08831945 -46.01263591 61.44466739 -32.61669922 43.20214844 C-30.8970263 40.85973682 -29.18478573 38.51199231 -27.47265625 36.1640625 C-21.24706793 27.64852497 -14.9155037 19.24106947 -8.35546875 10.98046875 C-5.50125179 7.36891396 -2.73804591 3.70006204 0 0 Z " fill="#FD5B11" transform="translate(309,30)"/>
<path d="M0 0 C2.89878769 1.29421956 4.78384618 2.57861239 6.84765625 4.984375 C7.36457031 5.58241943 7.88148438 6.18046387 8.4140625 6.79663086 C8.95804688 7.44124268 9.50203125 8.08585449 10.0625 8.75 C10.92294922 9.7565564 10.92294922 9.7565564 11.80078125 10.78344727 C16.41384379 16.21744613 20.83488805 21.78762133 25.19921875 27.421875 C27.64008245 30.56322069 30.15350012 33.63907328 32.68359375 36.70874023 C40.49939171 46.20320104 47.78712497 56.04305211 55 66 C56.11715025 67.53648542 57.23433718 69.07294417 58.3515625 70.609375 C61.0680869 74.3515589 63.77026461 78.10380539 66.46484375 81.86181641 C67.44935624 83.23305692 68.43613594 84.60267415 69.42578125 85.97021484 C79.01149344 99.21807413 87.92464607 112.90844334 96.81298828 126.62890625 C98.68629362 129.52005874 100.57442313 132.40125494 102.46484375 135.28125 C115.08764917 154.66929821 125.32304526 175.16511681 133 197 C133.45125244 198.26118652 133.45125244 198.26118652 133.91162109 199.54785156 C142.72468616 225.35116074 140.98282157 259.17243446 129.75 283.875 C128.55964962 286.28429777 127.29240245 288.64417932 126 291 C125.67547852 291.61004883 125.35095703 292.22009766 125.01660156 292.84863281 C107.14257713 326.12234915 74.43048699 347.86164862 39 359 C28.14878159 362.04107577 17.37773105 364.13037416 6.0859375 364.23828125 C4.82050613 364.25310799 4.82050613 364.25310799 3.5295105 364.26823425 C-37.7240364 364.65220742 -73.36876969 356.25119682 -104.0859375 326.90234375 C-116.35328191 314.84957665 -124.33673945 300.73404956 -131 285 C-131.4846875 283.97261719 -131.969375 282.94523437 -132.46875 281.88671875 C-134.53349865 277.06397197 -135.52257181 271.98563931 -136.625 266.875 C-136.8415625 265.89917969 -137.058125 264.92335938 -137.28125 263.91796875 C-137.86413353 261.28060068 -138.43986184 258.64228894 -139 256 C-139.18320801 255.19626953 -139.36641602 254.39253906 -139.55517578 253.56445312 C-142.03612539 239.26154716 -141.27205062 221.88416452 -137 208 C-136.80083984 207.34499512 -136.60167969 206.68999023 -136.39648438 206.01513672 C-127.09495208 176.33391972 -110.55853563 149.25130349 -92.98193359 123.87451172 C-90.97899562 120.96953615 -88.99616355 118.05183487 -87.01953125 115.12890625 C-80.55872004 105.5768132 -74.06822568 96.11602938 -67 87 C-65.82788469 85.47287853 -64.65577624 83.94575178 -63.48388672 82.41845703 C-62.2349383 80.79289655 -60.98291437 79.16974205 -59.73046875 77.546875 C-57.21749822 74.28750506 -54.72113817 71.01563504 -52.22558594 67.74291992 C-47.69012512 61.7966192 -43.13411265 55.86981948 -38.5 50 C-29.55081611 38.65837917 -20.83762203 27.13886949 -12.19458008 15.56298828 C-8.24047517 10.28329519 -4.17468487 5.10784972 0 0 Z " fill="#FF9657" transform="translate(301,119)"/>
</svg>
