<svg width="256" height="256" fill="none" xmlns="http://www.w3.org/2000/svg" xmlns:xlink="http://www.w3.org/1999/xlink" viewBox="0 0 256 256"><defs><linearGradient id="zod-dark-linear-gradient" x1="177.21" y1="25.82" x2="78.45" y2="196.88" gradientUnits="userSpaceOnUse"><stop offset="0" stop-color="#44a8fe"/><stop offset="1" stop-color="#3a6bff"/></linearGradient><linearGradient id="zod-dark-linear-gradient-2" x1="88.02" y1="170.82" x2="129.69" y2="129.15" gradientUnits="userSpaceOnUse"><stop offset="0" stop-color="#fff"/><stop offset="0.15" stop-color="#fbfcff"/><stop offset="0.33" stop-color="#eef5ff" stop-opacity="0.98"/><stop offset="0.53" stop-color="#d8e8ff" stop-opacity="0.96"/><stop offset="0.75" stop-color="#bbd6ff" stop-opacity="0.93"/><stop offset="0.9" stop-color="#a2c7ff" stop-opacity="0.9"/></linearGradient><linearGradient id="zod-dark-linear-gradient-3" x1="140.31" y1="98.77" x2="140.31" y2="149.94" gradientUnits="userSpaceOnUse"><stop offset="0.17" stop-color="#d4e7fe"/><stop offset="0.45" stop-color="#c3dcfe"/><stop offset="0.87" stop-color="#a2c7ff"/></linearGradient><linearGradient id="zod-dark-linear-gradient-4" x1="97.38" y1="180.19" x2="157.68" y2="119.89" gradientUnits="userSpaceOnUse"><stop offset="0" stop-color="#fff"/><stop offset="0.2" stop-color="#fdfeff"/><stop offset="0.34" stop-color="#f5f9ff" stop-opacity="0.99"/><stop offset="0.46" stop-color="#e7f1ff" stop-opacity="0.97"/><stop offset="0.58" stop-color="#d4e5ff" stop-opacity="0.95"/><stop offset="0.68" stop-color="#bcd7ff" stop-opacity="0.93"/><stop offset="0.77" stop-color="#a2c7ff" stop-opacity="0.9"/></linearGradient><linearGradient id="zod-dark-linear-gradient-5" x1="216.51" y1="173.11" x2="216.51" y2="173.11" xlink:href="#zod-dark-linear-gradient-2"/></defs><rect width="256" height="256" rx="60" fill="#1a1a1d"/><path d="M127.83,39.69H194c11,0,17.93,4.87,21.64,15.18Q226.46,84.95,237.24,115c3.53,9.83,1.4,17.93-6.41,24.83q-43.47,38.49-86.91,77c-9.18,8.13-20,8.37-29.23.4Q69.24,178,23.87,138.64C17,132.69,14.84,124,18,115.22Q28.27,86.77,38.65,58.34c.59-1.63,1.17-3.25,1.79-4.87C43.75,44.86,51,39.73,60.28,39.71Q94.06,39.63,127.83,39.69Z" fill="url(#zod-dark-linear-gradient)"/><polygon points="150.47 149.94 105.96 178.38 67.23 150.04 150.47 149.94" fill="url(#zod-dark-linear-gradient-2)"/><path d="M43,98.6l11.87-33a14.32,14.32,0,0,1,10.66-7.66h123.9s7.66,1,10.78,7.79L212.49,98.6Z" fill="#fff"/><path d="M151.53,98.77H212.3s1.91,4.93,0,9.23-3.45,4.6-3.45,4.6l-58.47,37.34H67.47Z" fill="url(#zod-dark-linear-gradient-3)"/><path d="M67.23,150h120.6L135.7,196.4s-6.64,6.71-15.32,0Z" fill="url(#zod-dark-linear-gradient-4)"/><path d="M216.51,173.11" fill="url(#zod-dark-linear-gradient-5)"/></svg>